<?xml version="1.0" encoding="utf-8"?>
<!-- Generator: Adobe Illustrator 21.1.0, SVG Export Plug-In . SVG Version: 6.00 Build 0)  -->
<svg version="1.1" id="Calque_1" xmlns="http://www.w3.org/2000/svg" xmlns:xlink="http://www.w3.org/1999/xlink" x="0px" y="0px"
	 viewBox="0 0 1000 1000" style="enable-background:new 0 0 1000 1000;" xml:space="preserve">
<style type="text/css">
	.st0{fill:#FFFFFF;}
</style>
<path class="st0" d="M940.5,449.5h-96.8H591.8V260.6c3.6-0.1,7-0.8,10.7-0.8c48.6,0,94.3,10.6,136,31.4c40.6,20.3,70.1,49,87.7,85.1
	l4.7,9.8h110.7l-8.8-23.4c-22.5-59.5-64.2-107.7-124.1-143.4c-59.3-35.2-129.2-53.1-207.8-53.1h-9H581H55.3v93.6h286.8
	c-0.4,0.4-0.9,0.6-1.2,1C275.2,323.7,242,404.5,242,500.9c0,95.8,33.2,176.4,98.8,239.3c0.2,0.2,0.4,0.3,0.5,0.4
	c-6.2,0.5-12.2,1.3-18.6,1.3c-43.8,0-82.6-11.5-115.1-34.3c-31.1-21.7-46.2-55.1-46.2-102.1v-29H55.3v29
	c0,72.9,26.5,130.2,78.6,170.4c50.7,39,114.3,58.8,188.8,58.8c47.4,0,89.8-9.3,128-25.9c44.6,17,94.6,25.9,150.1,25.9
	c66.6,0,123.9-11.5,170.1-34.2c28.3-13.9,52.3-30.3,71.8-49.2v83.3h1h101.8l0,0V449.5H940.5z M489.9,587.3
	c0,49.4-13.8,85-40.8,109.8c-9.8-6.5-19.7-13-28.6-21c-48.6-43.2-72.3-100.8-72.3-176.1c0-74.7,23.7-132,72.3-175.2
	c20.7-18.4,44.2-32.1,69.4-42.7V587.3z M839.4,568.2c0,58.8-22.7,100.9-69.2,128.9c-48.8,29.2-105.3,44-167.7,44
	c-19.1,0-37.3-1.8-54.9-4.8c29.3-39.5,44.2-90.5,44.2-152.4v-40.8h247.6V568.2z"/>
</svg>
